<?xml version="1.0" standalone="no"?>
<!DOCTYPE svg PUBLIC "-//W3C//DTD SVG 20010904//EN"
 "http://www.w3.org/TR/2001/REC-SVG-20010904/DTD/svg10.dtd">
<svg version="1.0" xmlns="http://www.w3.org/2000/svg"
 width="16.000000pt" height="40.000000pt" viewBox="0 0 16.000000 40.000000"
 preserveAspectRatio="xMidYMid meet">

<g transform="translate(0.000000,40.000000) scale(0.100000,-0.100000)"
fill="#000000" stroke="none">
<path d="M1 363 c0 -21 3 -32 6 -25 2 6 9 12 15 12 5 0 16 7 24 15 9 8 24 15
34 15 10 0 25 -7 34 -15 8 -8 19 -15 24 -15 6 0 13 -6 15 -12 3 -7 6 4 6 25
l1 37 -80 0 -80 0 1 -37z"/>
<path d="M4 301 c-2 -2 -4 -52 -3 -110 0 -58 3 -100 6 -93 2 6 9 12 15 12 5 0
16 7 24 15 20 19 48 19 68 0 8 -8 19 -15 24 -15 6 0 13 -6 16 -12 2 -7 4 36 3
95 l-2 109 -73 1 c-41 1 -76 0 -78 -2z m127 -33 c-13 -22 -23 -28 -51 -28 -28
0 -38 6 -51 28 l-15 27 66 0 66 0 -15 -27z"/>
<path d="M61 264 c0 -11 3 -14 6 -6 3 7 2 16 -1 19 -3 4 -6 -2 -5 -13z"/>
<path d="M91 264 c0 -11 3 -14 6 -6 3 7 2 16 -1 19 -3 4 -6 -2 -5 -13z"/>
<path d="M4 61 c-2 -2 -4 -17 -4 -33 0 -21 5 -28 19 -28 10 0 22 7 25 16 8 22
7 31 -2 17 -6 -9 -11 -8 -18 5 -10 15 -5 17 56 17 61 0 66 -2 56 -17 -8 -13
-13 -14 -19 -5 -6 8 -7 6 -3 -6 3 -10 6 -21 6 -23 0 -2 9 -4 21 -4 17 0 20 5
17 31 l-3 31 -73 2 c-41 0 -76 -1 -78 -3z"/>
<path d="M61 24 c0 -11 3 -14 6 -6 3 7 2 16 -1 19 -3 4 -6 -2 -5 -13z"/>
<path d="M91 24 c0 -11 3 -14 6 -6 3 7 2 16 -1 19 -3 4 -6 -2 -5 -13z"/>
</g>
</svg>
